<svg width="60" height="60" viewBox="0 0 60 60" fill="none" xmlns="http://www.w3.org/2000/svg">
<path d="M20.1459 31.5552C20.7817 34.5834 24.1649 36.7586 30.9313 41.1085C38.2906 45.8398 41.9704 48.2054 44.9509 47.2939C45.9603 46.9852 46.8901 46.4426 47.6706 45.706C49.9758 43.5321 49.9758 39.0183 49.9758 29.9911C49.9758 20.9639 49.9758 16.4503 47.6706 14.2761C46.8901 13.5398 45.9603 12.997 44.9509 12.6883C41.9704 11.777 38.2906 14.1425 30.9313 18.8737C24.1649 23.2237 20.7817 25.3988 20.1459 28.4271C19.9296 29.4575 19.9296 30.5248 20.1459 31.5552Z" stroke="white" stroke-width="3.74904" stroke-linejoin="round"/>
<path d="M9.99097 9.99879V49.9883" stroke="white" stroke-width="3.74904" stroke-linejoin="round"/>
</svg>
