<svg width="60" height="60" viewBox="0 0 60 60" fill="none" xmlns="http://www.w3.org/2000/svg">
<path d="M39.8145 31.5552C39.1787 34.5834 35.7955 36.7586 29.0292 41.1085C21.6698 45.8398 17.9901 48.2054 15.0096 47.2939C14.0001 46.9852 13.0703 46.4426 12.2898 45.706C9.98465 43.5321 9.98465 39.0183 9.98465 29.9911C9.98465 20.9639 9.98465 16.4503 12.2898 14.2761C13.0703 13.5398 14.0001 12.997 15.0096 12.6883C17.9901 11.777 21.6698 14.1425 29.0292 18.8737C35.7955 23.2237 39.1787 25.3988 39.8145 28.4271C40.0309 29.4575 40.0309 30.5248 39.8145 31.5552Z" stroke="white" stroke-width="3.74904" stroke-linejoin="round"/>
<path d="M49.9697 9.99879V49.9883" stroke="white" stroke-width="3.74904" stroke-linejoin="round"/>
</svg>
