<svg width="32" height="33" viewBox="0 0 32 33" fill="none" xmlns="http://www.w3.org/2000/svg">
<path d="M15.6655 0C16.4511 0 17.2146 0.258747 17.8386 0.735895L29.5973 9.72663L29.7965 9.88825C30.7679 10.7247 31.3311 11.9464 31.3311 13.2366V28.5193C31.3311 30.9596 29.3529 32.9378 26.9126 32.9378H4.41849C1.97823 32.9378 0 30.9596 0 28.5193V13.2366C3.21344e-05 11.8606 0.640809 10.5626 1.73381 9.72663L13.4925 0.735895L13.7325 0.566434C14.3074 0.197386 14.9782 0 15.6655 0ZM23.6992 17.2723C22.8118 17.2723 22.0924 17.9916 22.0924 18.879V25.3059C22.0924 26.1933 22.8118 26.9126 23.6992 26.9126C24.5865 26.9126 25.3059 26.1933 25.3059 25.3059V18.879C25.3059 17.9916 24.5865 17.2723 23.6992 17.2723Z" fill="white"/>
</svg>
