<svg width="39" height="39" viewBox="0 0 39 39" fill="none" xmlns="http://www.w3.org/2000/svg">
<path d="M24.907 28.9191C24.907 32.0249 22.3892 34.5426 19.2834 34.5426C16.1776 34.5426 13.6599 32.0249 13.6599 28.9191" stroke="white" stroke-width="2.41009" stroke-linecap="round" stroke-linejoin="round"/>
<path d="M30.8941 28.9246H7.65727C6.08763 28.9246 4.81519 27.6521 4.81519 26.0825C4.81519 25.3287 5.11461 24.6059 5.64761 24.0728L8.02863 21.6918V15.2674C8.02863 9.05587 13.0641 4.02039 19.2757 4.02039C25.4873 4.02039 30.5227 9.05585 30.5227 15.2674V21.6918L32.9038 24.0728C33.4367 24.6059 33.7362 25.3287 33.7362 26.0825C33.7362 27.6521 32.4637 28.9246 30.8941 28.9246Z" stroke="white" stroke-width="2.41009" stroke-linecap="round" stroke-linejoin="round"/>
</svg>
