<svg width="39" height="39" viewBox="0 0 39 39" fill="none" xmlns="http://www.w3.org/2000/svg">
<path d="M34.5228 32.0842C32.1414 27.969 28.4027 25.0814 24.0586 23.8568C26.1706 22.7832 27.8595 21.0295 28.853 18.8786C29.8464 16.7277 30.0865 14.3049 29.5345 12.0008C28.9825 9.69673 27.6706 7.64571 25.8103 6.17847C23.95 4.71123 21.6498 3.91328 19.2806 3.91328C16.9113 3.91328 14.6111 4.71123 12.7508 6.17847C10.8905 7.64571 9.5786 9.69673 9.02661 12.0008C8.47461 14.3049 8.71469 16.7277 9.70814 18.8786C10.7016 21.0295 12.3905 22.7832 14.5026 23.8568C10.1584 25.0799 6.41975 27.9675 4.03828 32.0842C3.97289 32.1871 3.92898 32.3021 3.9092 32.4224C3.88942 32.5427 3.89417 32.6657 3.92317 32.7841C3.95217 32.9025 4.00481 33.0138 4.07795 33.1113C4.15108 33.2089 4.24318 33.2906 4.34871 33.3516C4.45424 33.4126 4.57102 33.4516 4.69202 33.4663C4.81302 33.481 4.93575 33.4711 5.05281 33.4371C5.16988 33.4031 5.27886 33.3458 5.37321 33.2687C5.46756 33.1915 5.54532 33.096 5.60182 32.988C8.49543 27.9886 13.6078 25.0046 19.2806 25.0046C24.9533 25.0046 30.0657 27.9886 32.9593 32.988C33.0158 33.096 33.0936 33.1915 33.1879 33.2687C33.2823 33.3458 33.3912 33.4031 33.5083 33.4371C33.6254 33.4711 33.7481 33.481 33.8691 33.4663C33.9901 33.4516 34.1069 33.4126 34.2124 33.3516C34.3179 33.2906 34.41 33.2089 34.4832 33.1113C34.5563 33.0138 34.6089 32.9025 34.6379 32.7841C34.6669 32.6657 34.6717 32.5427 34.6519 32.4224C34.6321 32.3021 34.5882 32.1871 34.5228 32.0842ZM10.544 14.4605C10.544 12.7326 11.0564 11.0435 12.0164 9.60674C12.9764 8.17002 14.3408 7.05023 15.9372 6.38898C17.5336 5.72773 19.2902 5.55472 20.985 5.89182C22.6797 6.22892 24.2364 7.061 25.4582 8.28283C26.6801 9.50466 27.5121 11.0614 27.8492 12.7561C28.1863 14.4508 28.0133 16.2074 27.3521 17.8038C26.6908 19.4002 25.571 20.7647 24.1343 21.7247C22.6976 22.6847 21.0085 23.1971 19.2806 23.1971C16.9643 23.1943 14.7438 22.2729 13.106 20.6351C11.4681 18.9973 10.5468 16.7767 10.544 14.4605Z" fill="#9FADBC"/>
</svg>
