<svg width="39" height="39" viewBox="0 0 39 39" fill="none" xmlns="http://www.w3.org/2000/svg">
<path d="M34.3799 33.1025L26.6405 25.3631C28.8475 22.8251 29.9829 19.5292 29.8072 16.1704C29.6316 12.8116 28.1587 9.65216 25.699 7.35812C23.2394 5.06409 19.9851 3.81467 16.6222 3.87324C13.2593 3.93181 10.0505 5.29379 7.67216 7.67209C5.29386 10.0504 3.93188 13.2592 3.87331 16.6221C3.81474 19.985 5.06416 23.2393 7.35819 25.699C9.65223 28.1586 12.8117 29.6315 16.1705 29.8072C19.5293 29.9828 22.8251 28.8475 25.3632 26.6405L33.1026 34.3799C33.2739 34.5395 33.5005 34.6264 33.7346 34.6223C33.9688 34.6181 34.1922 34.5233 34.3578 34.3577C34.5234 34.1921 34.6182 33.9687 34.6223 33.7346C34.6265 33.5004 34.5396 33.2738 34.3799 33.1025ZM5.72402 16.8706C5.72402 14.666 6.37776 12.5109 7.60257 10.6778C8.82737 8.84479 10.5682 7.4161 12.605 6.57244C14.6418 5.72878 16.883 5.50803 19.0453 5.93813C21.2075 6.36823 23.1936 7.42984 24.7525 8.98872C26.3114 10.5476 27.373 12.5338 27.8031 14.696C28.2332 16.8582 28.0125 19.0994 27.1688 21.1362C26.3251 23.173 24.8965 24.9139 23.0634 26.1387C21.2303 27.3635 19.0753 28.0172 16.8707 28.0172C13.9155 28.0136 11.0824 26.8381 8.99276 24.7485C6.90313 22.6589 5.72761 19.8258 5.72402 16.8706Z" fill="#8C9BAB"/>
</svg>
