<svg width="39" height="39" viewBox="0 0 39 39" fill="none" xmlns="http://www.w3.org/2000/svg">
<path d="M15.1019 7.23195H13.4282C8.69439 7.23195 6.32746 7.23195 4.85685 8.64374C3.38623 10.0555 3.38623 12.3278 3.38623 16.8723V23.2992C3.38623 27.8436 3.38623 30.1159 4.85685 31.5277C6.32746 32.9395 8.69439 32.9395 13.4282 32.9395H20.1871C24.921 32.9395 27.2879 32.9395 28.7585 31.5277C29.7113 30.613 30.0468 29.3371 30.1649 27.316" stroke="white" stroke-width="2.00841" stroke-linecap="round" stroke-linejoin="round"/>
<path d="M25.9719 11.2484V6.19291C25.9719 5.87918 26.2368 5.62486 26.5636 5.62486C26.7204 5.62486 26.871 5.68471 26.982 5.79123L34.5852 13.0904C34.9642 13.4541 35.1769 13.9475 35.1769 14.4618C35.1769 14.9762 34.9642 15.4695 34.5852 15.8332L26.982 23.1323C26.871 23.239 26.7204 23.2988 26.5636 23.2988C26.2368 23.2988 25.9719 23.0445 25.9719 22.7307V17.6753H21.0697C14.2561 17.6753 11.7456 23.2988 11.7456 23.2988V19.282C11.7456 14.8452 15.4922 11.2484 20.1139 11.2484H25.9719Z" stroke="white" stroke-width="2.00841" stroke-linecap="round" stroke-linejoin="round"/>
</svg>
